# Blender 4.0.2
# www.blender.org
mtllib dev_orange_cube.mtl
o Cube
v -0.250510 -0.250510 0.250510
v -0.250510 0.250510 0.250510
v -0.250510 -0.250510 -0.250510
v -0.250510 0.250510 -0.250510
v 0.250510 -0.250510 0.250510
v 0.250510 0.250510 0.250510
v 0.250510 -0.250510 -0.250510
v 0.250510 0.250510 -0.250510
vn -1.0000 -0.0000 -0.0000
vn -0.0000 -0.0000 -1.0000
vn 1.0000 -0.0000 -0.0000
vn -0.0000 -0.0000 1.0000
vn -0.0000 -1.0000 -0.0000
vn -0.0000 1.0000 -0.0000
vt 0.000000 1.000000
vt 1.000000 1.000000
vt 1.000000 0.000000
vt 0.000000 0.000000
s 0
usemtl Material.001
f 1/1/1 2/2/1 4/3/1 3/4/1
f 3/4/2 4/1/2 8/2/2 7/3/2
f 7/4/3 8/3/3 6/2/3 5/1/3
f 5/3/4 6/2/4 2/1/4 1/4/4
f 3/4/5 7/3/5 5/2/5 1/1/5
f 8/3/6 4/4/6 2/1/6 6/2/6
